<?xml version="1.0" encoding="utf-8"?>
<!-- Generator: Adobe Illustrator 24.2.3, SVG Export Plug-In . SVG Version: 6.00 Build 0)  -->
<svg version="1.1" id="Layer_1" xmlns="http://www.w3.org/2000/svg" xmlns:xlink="http://www.w3.org/1999/xlink" x="0px" y="0px"
	 viewBox="0 0 500 500" style="enable-background:new 0 0 500 500;" xml:space="preserve">
<style type="text/css">
	.st0{fill:#FF0000;}
</style>
<g>
	<circle cx="250" cy="250" r="242.5"/>
</g>
<path class="st0" d="M429,241c-5,0-9,4-9,9c0,45.3-17.7,87.9-49.8,120c-32,32-74.5,49.5-119.7,49.5c-0.1,0-0.2,0-0.4,0
	C157.1,419.3,81.2,343.4,81,250.4c-0.1-33.2,9.7-64.4,26.5-90.8l-2.3,153.3c-0.1,5,3.9,9.1,8.9,9.1c0,0,0.1,0,0.1,0
	c4.9,0,8.9-3.9,9-8.9l2.7-177.4c29.2-31.7,70.1-52.5,115.7-54.9l0.5,63.1c-25.3,2.1-48.8,13.2-66.7,31.5
	c-19.4,19.9-30.1,46.1-30.1,73.9c0,58.4,47.5,105.9,105.9,105.9c5,0,9-4,9-9s-4-9-9-9c-48.4,0-87.9-39.4-87.9-87.9
	c0-48,37.6-86.6,85.5-87.8c6.3-0.2,11.4-5.4,11.3-11.8l-0.6-73.6c0-3.7-1.5-7.1-4.2-9.7c-2.7-2.6-6.1-3.9-9.8-3.8
	c-49.1,1.3-95,21.4-129.4,56.6C81.8,154.5,62.9,201.1,63,250.4c0.2,102.9,84.1,186.9,187.1,187.1c0.1,0,0.3,0,0.4,0
	c50,0,97-19.5,132.4-54.8C418.4,347.3,438,300.1,438,250C438,245,434,241,429,241z"/>
</svg>
