<?xml version="1.0" encoding="UTF-8"?>
<svg enable-background="new 0 0 568 446" version="1.1" viewBox="0 0 568 446" xml:space="preserve" xmlns="http://www.w3.org/2000/svg">
<style type="text/css">
	.svg__path__logo{fill:none;stroke:#ffffff;stroke-width:5;stroke-linecap:round;stroke-miterlimit:10;}
    path{fill:#ffffff}
</style>

	<path class="svg__path__logo"
          d="m290 216.5c-38.7 0-70-31.3-70-70s31.3-70 70-70l-0.5-58.5c-71.2 0-129 57.8-129 129s57.8 129 129 129 129-57.8 129-129"/>
	<line class="svg__path__logo" x1="193" x2="191" y1="61.5" y2="192.5"/>


	<path d="m39.8 364.3c-3.4 0-6.6-0.6-9.8-1.8-3.5-1.2-6.7-3.2-9.6-5.9-2.7-2.5-4.9-5.6-6.5-9.2-1.4-3.3-2.2-6.8-2.4-10.6-0.1-3.7 0.5-7.3 1.7-10.6 1.3-3.5 3.3-6.7 5.9-9.6 1.3-1.4 2.7-2.6 4.2-3.7s3.2-2 4.9-2.8c3.3-1.4 6.8-2.3 10.6-2.4s7.4 0.5 10.7 1.8c3.6 1.3 6.8 3.3 9.6 5.9 0.6 0.6 0.9 1.3 1 2.2 0 0.9-0.2 1.6-0.8 2.3-0.6 0.6-1.4 0.9-2.2 1-0.9 0-1.6-0.2-2.2-0.8-2.2-2-4.6-3.6-7.3-4.6s-5.5-1.5-8.5-1.4-5.8 0.7-8.4 1.9-5 2.8-7 5-3.5 4.6-4.5 7.3-1.5 5.5-1.4 8.5 0.7 5.8 1.9 8.4c1.2 2.7 2.8 5 5 7s4.6 3.5 7.3 4.5 5.5 1.5 8.5 1.4 5.8-0.7 8.4-1.9 5-2.8 6.9-5c0.6-0.6 1.4-0.9 2.2-1 0.9 0 1.6 0.2 2.2 0.8 0.7 0.6 1 1.3 1 2.2s-0.3 1.6-0.9 2.3c-2.6 2.8-5.7 5-9.2 6.5-3.3 1.4-6.8 2.2-10.6 2.4h-0.7z"/>
	<path d="m92.1 364.5c-3 0-5.7-0.7-8.3-2.2-1.2-0.7-2.3-1.6-3.5-2.5-1.1-1-2.1-2.1-3.1-3.3-1.8-2.5-3.2-5.3-4.2-8.4s-1.5-6.4-1.5-9.8v-28.1c0-0.9 0.3-1.6 0.9-2.2s1.3-0.9 2.2-0.9 1.6 0.3 2.2 0.9 0.9 1.3 0.9 2.2v27.9c0 2.8 0.4 5.4 1.1 7.9 0.8 2.5 1.9 4.7 3.4 6.7 1.3 1.8 2.9 3.2 4.6 4.1s3.4 1.4 5.3 1.4c1.8 0 3.6-0.5 5.3-1.4s3.2-2.3 4.6-4.1c1.5-2 2.6-4.2 3.3-6.7 0.8-2.5 1.2-5.1 1.2-7.9v-27.9c0-0.9 0.3-1.6 0.9-2.2s1.3-0.9 2.2-0.9 1.6 0.3 2.2 0.9 0.9 1.3 0.9 2.2v28.1c0 3.4-0.5 6.7-1.5 9.8s-2.4 5.9-4.3 8.4c-1.9 2.4-4 4.4-6.5 5.8-2.6 1.5-5.4 2.2-8.3 2.2z"/>
	<path d="m145.3 364.7h-19.4c-0.9 0-1.6-0.3-2.2-0.9s-0.9-1.3-0.9-2.2 0.3-1.6 0.9-2.2 1.3-0.9 2.2-0.9h19.4c1.3 0 2.6-0.3 3.8-0.8s2.2-1.2 3.1-2.1 1.6-1.9 2.1-3.1 0.8-2.4 0.8-3.8c0-1.3-0.2-2.5-0.7-3.7s-1.2-2.2-2-3c-0.8-0.9-1.8-1.6-2.9-2.1s-2.3-0.8-3.6-0.9c-0.1 0.1-0.3 0.1-0.5 0.1h-7.8c-0.2 0-0.4-0.1-0.9-0.2-2-0.2-3.8-0.8-5.5-1.7s-3.2-2.1-4.4-3.5-2.2-3-3-4.8c-0.7-1.8-1.1-3.7-1.1-5.8 0-2.2 0.4-4.2 1.2-6.2 0.8-1.9 2-3.6 3.4-5.1 1.5-1.5 3.2-2.6 5.1-3.4s4-1.2 6.2-1.2h19.5c0.9 0 1.6 0.3 2.2 0.9s0.9 1.3 0.9 2.2-0.3 1.6-0.9 2.2-1.3 0.9-2.2 0.9h-19.5c-1.3 0-2.6 0.3-3.8 0.8s-2.2 1.2-3.1 2.1-1.6 1.9-2.1 3.1-0.8 2.4-0.8 3.8 0.3 2.6 0.8 3.8 1.2 2.2 2.1 3.1 1.9 1.6 3.1 2.1 2.4 0.8 3.8 0.8h6.1c0.1-0.1 0.3-0.1 0.5-0.1 2.2 0 4.2 0.4 6.2 1.2s3.6 2 5.1 3.4 2.6 3.1 3.4 5.1c0.8 1.9 1.2 4 1.2 6.2s-0.4 4.2-1.2 6.2c-0.8 1.9-2 3.6-3.4 5.1-1.5 1.4-3.2 2.6-5.1 3.4-1.9 0.7-4 1.2-6.1 1.2z"/>
	<path d="m191.3 364.6c-0.9 0-1.6-0.3-2.2-0.9s-0.9-1.3-0.9-2.2v-48.1h-13.6c-0.9 0-1.6-0.3-2.2-0.9s-0.9-1.3-0.9-2.2 0.3-1.6 0.9-2.2 1.3-0.9 2.2-0.9h33.4c0.9 0 1.6 0.3 2.2 0.9s0.9 1.3 0.9 2.2-0.3 1.6-0.9 2.2-1.3 0.9-2.2 0.9h-13.6v48.1c0 0.9-0.3 1.6-0.9 2.2s-1.4 0.9-2.2 0.9z"/>
	<path d="m249.5 364.6c-3.8 0-7.5-0.8-11.1-2.3-1.7-0.7-3.2-1.6-4.7-2.6s-2.9-2.2-4.3-3.5c-1.3-1.3-2.5-2.8-3.5-4.3s-1.9-3.1-2.6-4.7c-1.5-3.6-2.3-7.3-2.3-11.1s0.8-7.5 2.3-11c1.4-3.4 3.4-6.4 6.1-9 2.6-2.6 5.7-4.7 9-6.1 3.5-1.5 7.2-2.3 11.1-2.3 1.9 0 3.8 0.2 5.6 0.5 1.8 0.4 3.6 0.9 5.4 1.7 3.5 1.4 6.5 3.4 9 6.1 1.3 1.3 2.5 2.7 3.5 4.2s1.9 3.1 2.6 4.8c1.5 3.4 2.2 7.1 2.2 11 0 4-0.7 7.7-2.2 11.1s-3.6 6.4-6.1 9c-1.3 1.3-2.7 2.5-4.2 3.5s-3.1 1.9-4.8 2.6c-3.5 1.6-7.2 2.4-11 2.4zm0-50.7c-3 0-5.8 0.5-8.5 1.6s-5.1 2.7-7.2 4.8-3.7 4.5-4.9 7.2c-1.1 2.7-1.7 5.5-1.7 8.5s0.6 5.8 1.7 8.5 2.7 5.1 4.9 7.2 4.5 3.7 7.2 4.9c2.7 1.1 5.5 1.7 8.5 1.7s5.8-0.6 8.5-1.7 5.1-2.7 7.2-4.9c2.1-2.1 3.7-4.5 4.8-7.2s1.6-5.5 1.6-8.5-0.5-5.8-1.6-8.5-2.7-5.1-4.8-7.2-4.5-3.7-7.2-4.8c-2.7-1-5.5-1.6-8.5-1.6z"/>
	<path d="m335.8 364.7c-0.9 0-1.6-0.3-2.2-0.9s-0.9-1.3-0.9-2.2v-43.7l-16.4 17.7c-0.6 0.7-1.4 1-2.3 1s-1.7-0.3-2.3-1l-16.1-17.3v43.3c0 0.9-0.3 1.6-0.9 2.2s-1.3 0.9-2.2 0.9-1.6-0.3-2.2-0.9-0.9-1.3-0.9-2.2v-51.4c0-0.4 0.1-0.8 0.2-1.2 0.2-0.4 0.4-0.7 0.7-0.9l0.2-0.2c0.1-0.1 0.2-0.2 0.4-0.3s0.3-0.2 0.4-0.3c0.4-0.1 0.8-0.2 1-0.2l0.2-0.1c0.5 0.1 0.9 0.2 1.2 0.3 0.4 0.2 0.7 0.4 1 0.7h0.1l19.2 20.8 19.2-20.8c0.7-0.7 1.6-1 2.5-0.9 0.1-0.1 0.1-0.1 0.2-0.1 0.9 0 1.6 0.3 2.2 0.9s0.9 1.3 0.9 2.2v51.3c0 0.9-0.3 1.6-0.9 2.2-0.7 0.8-1.4 1.1-2.3 1.1z"/>
	<path d="m424.2 364.7c-0.9 0-1.6-0.3-2.2-0.9s-0.9-1.3-0.9-2.2v-43.7l-16.4 17.7c-0.6 0.7-1.4 1-2.3 1s-1.7-0.3-2.3-1l-16.1-17.3v43.3c0 0.9-0.3 1.6-0.9 2.2s-1.3 0.9-2.2 0.9-1.6-0.3-2.2-0.9-0.9-1.3-0.9-2.2v-51.4c0-0.4 0.1-0.8 0.2-1.2 0.2-0.4 0.4-0.7 0.7-0.9l0.2-0.2c0.1-0.1 0.2-0.2 0.4-0.3s0.3-0.2 0.4-0.3c0.4-0.1 0.8-0.2 1-0.2l0.2-0.1c0.5 0.1 0.9 0.2 1.2 0.3 0.4 0.2 0.7 0.4 1 0.7h0.1l19.2 20.8 19.2-20.8c0.7-0.7 1.6-1 2.5-0.9 0.1-0.1 0.1-0.1 0.2-0.1 0.9 0 1.6 0.3 2.2 0.9s0.9 1.3 0.9 2.2v51.3c0 0.9-0.3 1.6-0.9 2.2-0.7 0.8-1.4 1.1-2.3 1.1z"/>
	<path d="m471.3 364.7c-0.9 0-1.6-0.3-2.2-0.9s-0.9-1.3-0.9-2.2v-21.2h-24.2v21.2c0 0.9-0.3 1.6-0.9 2.2s-1.3 0.9-2.2 0.9-1.6-0.3-2.2-0.9-0.9-1.3-0.9-2.2v-36.6c0.1-2.3 0.5-4.6 1.5-6.7 0.9-2.2 2.2-4.1 3.9-5.7 1.7-1.8 3.7-3.1 5.9-4s4.6-1.4 7-1.4c2.5 0 4.8 0.5 7.1 1.4 2.2 0.9 4.2 2.2 5.9 4 1.7 1.7 2.9 3.6 3.9 5.7 0.9 2.2 1.4 4.4 1.5 6.7v36.6c0 0.9-0.3 1.6-0.9 2.2-0.7 0.6-1.5 0.9-2.3 0.9zm-27.4-30.5h24.2v-8.7c0-1.7-0.3-3.2-1-4.7-0.6-1.5-1.5-2.8-2.6-3.9s-2.4-1.9-3.9-2.6c-1.5-0.6-3-0.9-4.7-0.9s-3.2 0.3-4.7 0.9-2.7 1.5-3.8 2.6-2 2.4-2.6 3.9-1 3-1 4.7v8.7z"/>
	<path d="m495.2 364.8h-8c-0.8 0-1.5-0.3-2.1-0.9s-0.9-1.3-0.9-2.2v-51.4c0-0.9 0.3-1.6 0.9-2.2s1.3-0.9 2.2-0.9h7.9c3.6 0 7 0.8 10.3 2.3 3.1 1.5 5.9 3.6 8.3 6.2 2.4 2.8 4.3 5.9 5.6 9.3 1.3 3.5 1.9 7.1 1.9 10.9s-0.6 7.5-1.9 10.9c-1.3 3.5-3.2 6.6-5.6 9.3s-5.2 4.7-8.3 6.2c-3.3 1.7-6.7 2.5-10.3 2.5zm-4.7-6.2h4.8c2.7 0 5.3-0.6 7.7-1.8s4.5-2.8 6.3-4.9c1.8-2 3.2-4.4 4.3-7.2 1-2.7 1.6-5.7 1.6-8.8s-0.5-6-1.6-8.8c-1-2.7-2.5-5.1-4.3-7.2-1.8-2-3.9-3.7-6.3-4.9s-5-1.8-7.7-1.8h-4.8v45.4z"/>
	<path d="m561.5 364.6h-27c-0.9 0-1.6-0.3-2.2-0.9s-0.9-1.3-0.9-2.2v-50.6c0-0.9 0.3-1.6 0.9-2.2s1.3-0.9 2.2-0.9h27c0.9 0 1.6 0.3 2.2 0.9s0.9 1.3 0.9 2.2-0.3 1.6-0.9 2.2-1.3 0.9-2.2 0.9h-23.9v19.5h15.8c0.9 0 1.6 0.3 2.2 0.9s0.9 1.3 0.9 2.2-0.3 1.6-0.9 2.2-1.3 0.9-2.2 0.9h-15.8v18.7h23.9c0.9 0 1.6 0.3 2.2 0.9s0.9 1.3 0.9 2.2-0.3 1.6-0.9 2.2-1.3 0.9-2.2 0.9z"/>


	<path d="m77 420.3h-0.5-5c-0.5 0-0.9-0.1-1.3-0.4s-0.6-0.6-0.7-1v-0.2-0.2-31.2c0-0.5 0.2-1 0.6-1.3 0.4-0.4 0.9-0.5 1.5-0.5h2.9 0.4c0.1 0 0.2 0.1 0.4 0.1 1.3 0.1 2.6 0.5 3.7 1s2.1 1.3 3 2.1 1.5 1.8 2 2.9 0.7 2.3 0.7 3.6c0 1.4-0.3 2.6-0.8 3.8-0.6 1.2-1.3 2.2-2.2 3.1 1.8 0.8 3.2 2 4.3 3.5 1.1 1.6 1.6 3.3 1.6 5.2 0 1.3-0.3 2.6-0.8 3.8s-1.3 2.2-2.2 3.1-2 1.6-3.3 2.1c-1.6 0.2-2.9 0.5-4.3 0.5zm-3.5-19.4h1.3c0.8-0.1 1.5-0.3 2.2-0.6s1.3-0.8 1.8-1.3 0.9-1.1 1.2-1.8 0.4-1.4 0.4-2.2-0.2-1.6-0.5-2.3-0.8-1.4-1.3-1.9-1.2-1-2-1.3-1.6-0.5-2.4-0.5c-0.3 0-0.5 0-0.7-0.1v12zm0 15.5h3.5 0.5c0.8-0.1 1.6-0.3 2.3-0.6s1.3-0.8 1.8-1.3 0.9-1.1 1.2-1.8 0.4-1.4 0.4-2.2-0.2-1.6-0.5-2.3-0.8-1.4-1.3-1.9c-0.6-0.5-1.2-1-2-1.3s-1.6-0.5-2.4-0.5h-2-0.4-0.4-0.6v11.9z"/>
	<path d="m106.8 420.3c-0.5 0-1-0.2-1.3-0.5-0.4-0.4-0.5-0.8-0.5-1.3v-19c-2.6-0.4-4.8-1.5-6.7-3.4-1.2-1.2-2.1-2.5-2.7-4s-0.9-3-0.9-4.6c0-0.5 0.2-1 0.5-1.3 0.4-0.4 0.8-0.5 1.3-0.5s1 0.2 1.3 0.5c0.4 0.4 0.5 0.8 0.5 1.3 0 1.1 0.2 2.2 0.7 3.2 0.4 1 1 1.9 1.8 2.7s1.6 1.4 2.7 1.8c1 0.4 2.1 0.7 3.3 0.7 1.1 0 2.2-0.2 3.2-0.7 1-0.4 1.9-1 2.7-1.8s1.4-1.6 1.8-2.7c0.4-1 0.7-2.1 0.7-3.2 0-0.5 0.2-1 0.5-1.3 0.4-0.4 0.8-0.5 1.3-0.5s1 0.2 1.3 0.5c0.4 0.4 0.5 0.8 0.5 1.3 0 1.6-0.3 3.2-0.9 4.6s-1.5 2.8-2.6 4c-1.9 1.9-4.2 3-6.7 3.4v19c0 0.5-0.2 1-0.5 1.3-0.4 0.3-0.8 0.5-1.3 0.5z"/>
	<path d="m160.8 420c-2 0-4-0.4-6-1.1-2.1-0.7-4-1.9-5.8-3.6-1.7-1.5-3-3.4-3.9-5.6-0.9-2-1.4-4.1-1.4-6.4-0.1-2.3 0.3-4.4 1-6.5 0.8-2.1 2-4.1 3.6-5.8 0.8-0.8 1.6-1.6 2.6-2.3 0.9-0.7 1.9-1.2 3-1.7 2-0.9 4.1-1.4 6.4-1.5s4.5 0.3 6.5 1.1c2.2 0.8 4.1 2 5.8 3.6 0.4 0.3 0.6 0.8 0.6 1.3s-0.1 1-0.5 1.4-0.8 0.6-1.3 0.6-1-0.1-1.3-0.5c-1.3-1.2-2.8-2.2-4.4-2.8s-3.4-0.9-5.2-0.9c-1.8 0.1-3.5 0.4-5.1 1.2s-3 1.7-4.3 3.1c-1.2 1.3-2.1 2.8-2.7 4.4s-0.9 3.4-0.9 5.2c0.1 1.8 0.4 3.5 1.2 5.1 0.7 1.6 1.7 3 3 4.3 1.3 1.2 2.8 2.1 4.4 2.7s3.4 0.9 5.1 0.9c1.8-0.1 3.5-0.4 5.1-1.2s3-1.7 4.2-3c0.4-0.4 0.8-0.6 1.3-0.6s1 0.2 1.3 0.5c0.4 0.3 0.6 0.8 0.6 1.3s-0.2 1-0.5 1.4c-1.6 1.7-3.5 3-5.6 3.9-2 0.9-4.1 1.4-6.4 1.4h-0.4z"/>
	<path d="m198.3 420.1c-2.3 0-4.6-0.5-6.8-1.4-1-0.4-2-1-2.9-1.6s-1.8-1.3-2.6-2.1-1.5-1.7-2.1-2.6-1.1-1.9-1.6-2.9c-0.9-2.2-1.4-4.4-1.4-6.8 0-2.3 0.5-4.5 1.4-6.7 0.9-2 2.1-3.9 3.7-5.5s3.4-2.8 5.5-3.7 4.4-1.4 6.8-1.4c1.2 0 2.3 0.1 3.4 0.3s2.2 0.6 3.3 1c2.1 0.9 3.9 2.1 5.5 3.7 0.8 0.8 1.5 1.6 2.1 2.6 0.6 0.9 1.1 1.9 1.6 2.9 0.9 2.1 1.3 4.3 1.3 6.7s-0.4 4.7-1.3 6.8-2.2 3.9-3.7 5.5c-0.8 0.8-1.6 1.5-2.6 2.1-0.9 0.6-1.9 1.1-2.9 1.6-2.1 1.1-4.4 1.5-6.7 1.5zm0-30.7c-1.8 0-3.5 0.3-5.1 1s-3.1 1.6-4.4 2.9-2.3 2.8-3 4.4-1 3.4-1 5.2 0.3 3.6 1 5.2 1.7 3.1 3 4.4 2.8 2.3 4.4 3 3.4 1 5.1 1 3.5-0.3 5.1-1 3.1-1.7 4.4-3 2.3-2.7 2.9-4.4c0.7-1.6 1-3.3 1-5.2 0-1.8-0.3-3.5-1-5.2-0.7-1.6-1.6-3.1-2.9-4.4s-2.8-2.3-4.4-2.9c-1.6-0.7-3.3-1-5.1-1z"/>
	<path d="m241.3 420.1h-16.4c-0.5 0-1-0.2-1.3-0.5-0.4-0.4-0.5-0.8-0.5-1.3v-30.7c0-0.5 0.2-1 0.5-1.3 0.4-0.4 0.8-0.5 1.3-0.5h16.4c0.5 0 1 0.2 1.3 0.5 0.4 0.4 0.5 0.8 0.5 1.3s-0.2 1-0.5 1.3c-0.4 0.4-0.8 0.5-1.3 0.5h-14.5v11.8h9.6c0.5 0 1 0.2 1.3 0.5 0.4 0.4 0.5 0.8 0.5 1.3s-0.2 1-0.5 1.3c-0.4 0.4-0.8 0.5-1.3 0.5h-9.6v11.3h14.5c0.5 0 1 0.2 1.3 0.5 0.4 0.4 0.5 0.8 0.5 1.3s-0.2 1-0.5 1.3c-0.3 0.7-0.8 0.9-1.3 0.9z"/>
	<path d="m271.4 420.2c-0.4 0-0.8-0.1-1.1-0.4-0.3-0.2-0.4-0.4-0.6-0.6l-15.2-25.3v24.3c0 0.5-0.2 1-0.5 1.3-0.4 0.4-0.8 0.5-1.3 0.5s-1-0.2-1.3-0.5c-0.4-0.4-0.5-0.8-0.5-1.3v-31.2c0-0.2 0.1-0.3 0.1-0.4s0.1-0.2 0.1-0.4c0.1-0.2 0.3-0.4 0.6-0.6 0.1-0.1 0.1-0.1 0.3-0.2 0.1 0 0.2-0.1 0.4-0.1 0.3-0.1 0.5-0.1 0.7 0 0.3 0 0.5 0.1 0.8 0.2 0.3 0.2 0.5 0.3 0.6 0.5l0.1 0.2 15.3 25.4v-24.4c0-0.5 0.2-1 0.5-1.3 0.4-0.4 0.8-0.5 1.3-0.5s1 0.2 1.3 0.5c0.4 0.4 0.5 0.8 0.5 1.3v31.1c0 0.5-0.2 1-0.5 1.3-0.7 0.4-1.1 0.6-1.6 0.6z"/>
	<path d="m282.3 420.3c-0.5 0-1-0.2-1.3-0.5-0.4-0.4-0.5-0.8-0.5-1.3v-31.2c0-0.5 0.2-1 0.5-1.3 0.4-0.4 0.8-0.5 1.3-0.5s1 0.2 1.3 0.5c0.4 0.4 0.5 0.8 0.5 1.3v31.2c0 0.5-0.2 1-0.5 1.3s-0.7 0.5-1.3 0.5z"/>
	<path d="m309.7 420.1h-16.4c-0.5 0-1-0.2-1.3-0.5-0.4-0.4-0.5-0.8-0.5-1.3v-30.7c0-0.5 0.2-1 0.5-1.3 0.4-0.4 0.8-0.5 1.3-0.5h16.4c0.5 0 1 0.2 1.3 0.5 0.4 0.4 0.5 0.8 0.5 1.3s-0.2 1-0.5 1.3c-0.4 0.4-0.8 0.5-1.3 0.5h-14.5v11.8h9.6c0.5 0 1 0.2 1.3 0.5 0.4 0.4 0.5 0.8 0.5 1.3s-0.2 1-0.5 1.3c-0.4 0.4-0.8 0.5-1.3 0.5h-9.6v11.3h14.5c0.5 0 1 0.2 1.3 0.5 0.4 0.4 0.5 0.8 0.5 1.3s-0.2 1-0.5 1.3c-0.3 0.7-0.7 0.9-1.3 0.9z"/>
	<path d="m365.1 420.2c-0.5 0-1-0.2-1.3-0.5-0.4-0.4-0.5-0.8-0.5-1.3v-26.6l-10 10.8c-0.4 0.4-0.9 0.6-1.4 0.6-0.6 0-1-0.2-1.4-0.6l-9.8-10.5v26.3c0 0.5-0.2 1-0.5 1.3s-0.8 0.5-1.3 0.5-1-0.2-1.3-0.5c-0.4-0.4-0.5-0.8-0.5-1.3v-31.1c0-0.3 0-0.5 0.1-0.8s0.3-0.4 0.4-0.6l0.3-0.3s0.2-0.1 0.2-0.2c0.3-0.1 0.5-0.1 0.6-0.1h0.1c0.3 0.1 0.6 0.1 0.8 0.2s0.4 0.2 0.6 0.4l11.7 12.7 11.7-12.7c0.4-0.4 0.9-0.6 1.5-0.6h0.1c0.5 0 1 0.2 1.3 0.5 0.4 0.4 0.5 0.8 0.5 1.3v31.2c0 0.5-0.2 1-0.5 1.3s-0.9 0.6-1.4 0.6z"/>
	<path d="m394.6 420.2c-0.5 0-1-0.2-1.3-0.5-0.4-0.4-0.5-0.8-0.5-1.3v-12.9h-14.8v12.9c0 0.5-0.2 1-0.5 1.3-0.4 0.4-0.8 0.5-1.3 0.5s-1-0.2-1.3-0.5c-0.4-0.4-0.5-0.8-0.5-1.3v-22.2c0-1.4 0.3-2.8 0.9-4.1s1.4-2.5 2.4-3.5c1-1.1 2.2-1.9 3.6-2.4 1.3-0.6 2.8-0.8 4.3-0.8s2.9 0.3 4.3 0.8 2.6 1.4 3.6 2.4 1.8 2.2 2.3 3.5c0.6 1.3 0.9 2.7 0.9 4.1v22.2c0 0.5-0.2 1-0.5 1.3-0.6 0.3-1 0.5-1.6 0.5zm-16.6-18.6h14.7v-5.3c0-1-0.2-2-0.6-2.9s-0.9-1.7-1.6-2.3c-0.7-0.7-1.4-1.2-2.3-1.6s-1.9-0.6-2.9-0.6-2 0.2-2.8 0.6-1.7 0.9-2.3 1.6c-0.7 0.7-1.2 1.4-1.6 2.3s-0.6 1.9-0.6 2.9v5.3z"/>
	<path d="m419.8 420.3c-0.3 0-0.6-0.1-0.9-0.2s-0.5-0.4-0.7-0.6l-9.4-13.5h-1.5v12.4c0 0.5-0.2 1-0.5 1.3s-0.8 0.5-1.3 0.5-1-0.2-1.3-0.5c-0.4-0.4-0.5-0.8-0.5-1.3l0.1-31c0-0.3 0.1-0.7 0.3-0.9 0.2-0.3 0.4-0.5 0.6-0.6 0.3-0.2 0.6-0.3 1-0.3h4.5c1.6 0 3.1 0.2 4.6 0.7 1.4 0.5 2.7 1.2 3.9 2.1 1.1 0.9 2 2 2.6 3.3 0.7 1.3 1 2.7 1 4.1 0 1.5-0.3 2.9-1 4.1-0.3 0.6-0.7 1.2-1.2 1.7-0.4 0.5-0.9 1-1.5 1.5-1.5 1.3-3.3 2.1-5.2 2.5l8.1 11.8c0.3 0.4 0.4 0.9 0.3 1.4s-0.4 0.9-0.8 1.2c-0.6 0.2-0.9 0.3-1.2 0.3zm-12.6-18.1h2.7c1.1 0 2.2-0.2 3.3-0.5 1-0.3 2-0.9 2.8-1.5 1.5-1.2 2.3-2.7 2.3-4.4s-0.8-3.2-2.3-4.4c-1.7-1.3-3.7-2-6-2h-2.7l-0.1 12.8z"/>
	<path d="m449.4 420.2c-0.5 0-1-0.2-1.3-0.5-0.4-0.4-0.5-0.8-0.5-1.3v-12.9h-14.7v12.9c0 0.5-0.2 1-0.5 1.3-0.4 0.4-0.8 0.5-1.3 0.5s-1-0.2-1.3-0.5c-0.4-0.4-0.5-0.8-0.5-1.3v-22.2c0-1.4 0.3-2.8 0.9-4.1s1.4-2.5 2.4-3.5c1-1.1 2.2-1.9 3.6-2.4 1.3-0.6 2.8-0.8 4.3-0.8s2.9 0.3 4.3 0.8 2.6 1.4 3.6 2.4 1.8 2.2 2.3 3.5c0.6 1.3 0.9 2.7 0.9 4.1v22.2c0 0.5-0.2 1-0.5 1.3-0.7 0.3-1.2 0.5-1.7 0.5zm-16.6-18.6h14.7v-5.3c0-1-0.2-2-0.6-2.9s-0.9-1.7-1.6-2.3c-0.7-0.7-1.4-1.2-2.3-1.6s-1.9-0.6-2.9-0.6-2 0.2-2.8 0.6-1.7 0.9-2.3 1.6c-0.7 0.7-1.2 1.4-1.6 2.3s-0.6 1.9-0.6 2.9v5.3z"/>
	<path d="m459.9 420.3c-0.5 0-1-0.2-1.3-0.5-0.4-0.4-0.5-0.8-0.5-1.3v-31.2c0-0.5 0.2-1 0.5-1.3 0.4-0.4 0.8-0.5 1.3-0.5s1 0.2 1.3 0.5c0.4 0.4 0.5 0.8 0.5 1.3v31.2c0 0.5-0.2 1-0.5 1.3s-0.7 0.5-1.3 0.5z"/>
	<path d="m482.7 420.2h-11.8c-0.5 0-1-0.2-1.3-0.5-0.4-0.4-0.5-0.8-0.5-1.3s0.2-1 0.5-1.3c0.4-0.4 0.8-0.5 1.3-0.5h11.8c0.8 0 1.6-0.2 2.3-0.5s1.3-0.7 1.9-1.3c0.5-0.5 1-1.2 1.3-1.9s0.5-1.5 0.5-2.3-0.2-1.5-0.4-2.2c-0.3-0.7-0.7-1.3-1.2-1.8s-1.1-0.9-1.8-1.3c-0.7-0.3-1.4-0.5-2.2-0.5h-0.3-4.8c-0.1 0-0.3 0-0.5-0.1-1.2-0.1-2.3-0.5-3.3-1-1-0.6-1.9-1.3-2.7-2.1s-1.4-1.8-1.8-2.9-0.7-2.3-0.7-3.5c0-1.3 0.3-2.6 0.8-3.8s1.2-2.2 2.1-3.1 1.9-1.6 3.1-2.1 2.4-0.8 3.8-0.8h11.8c0.5 0 1 0.2 1.3 0.5 0.4 0.4 0.5 0.8 0.5 1.3s-0.2 1-0.5 1.3c-0.4 0.4-0.8 0.5-1.3 0.5h-11.8c-0.8 0-1.6 0.2-2.3 0.5s-1.3 0.7-1.9 1.3c-0.5 0.5-1 1.2-1.3 1.9s-0.5 1.5-0.5 2.3 0.2 1.6 0.5 2.3 0.7 1.3 1.3 1.9c0.5 0.5 1.2 1 1.9 1.3s1.5 0.5 2.3 0.5h3.7 0.3c1.3 0 2.6 0.3 3.8 0.8s2.2 1.2 3.1 2.1 1.6 1.9 2.1 3.1 0.8 2.4 0.8 3.7-0.3 2.6-0.8 3.7c-0.5 1.2-1.2 2.2-2.1 3.1s-1.9 1.6-3.1 2.1c-1.3 0.3-2.5 0.6-3.9 0.6z"/>

</svg>
