<?xml version="1.0" encoding="utf-8"?>
<!-- Generator: Adobe Illustrator 24.2.3, SVG Export Plug-In . SVG Version: 6.00 Build 0)  -->
<svg version="1.1" id="Layer_1" xmlns="http://www.w3.org/2000/svg" xmlns:xlink="http://www.w3.org/1999/xlink" x="0px" y="0px"
	 viewBox="0 0 378.6 74.5" style="enable-background:new 0 0 378.6 74.5;" xml:space="preserve">
<style type="text/css">
	.st0{fill:none;stroke:#000000;stroke-width:3;stroke-linecap:round;stroke-miterlimit:10;}
	.st1{fill:#FF4500;}
</style>
<g id="logo">
	<path class="st0" d="M32.2,58.9c-9.2,0-16.6-7.4-16.6-16.6S23,25.7,32.2,25.7l-0.1-13.9c-16.9,0-30.6,13.7-30.6,30.6
		S15.2,73,32.1,73s30.6-13.7,30.6-30.6"/>
	<line class="st0" x1="9.2" y1="22.2" x2="8.7" y2="53.2"/>
</g>
<g id="made">
	<path class="st1" d="M53.6,37.7c-2.1,0-4.1-0.4-6.1-1.2c-2.2-0.8-4.1-2.1-5.9-3.9c-1.7-1.7-3-3.7-4-6c-0.9-2.1-1.4-4.5-1.5-7
		c-0.1-2.5,0.3-4.8,1-7c0.8-2.3,2-4.4,3.7-6.3c0.8-0.9,1.7-1.7,2.6-2.5c0.9-0.7,2-1.3,3-1.8c2-1,4.2-1.5,6.6-1.6
		c2.4-0.1,4.6,0.3,6.6,1.2c2.2,0.9,4.2,2.2,5.9,3.9c0.4,0.4,0.6,0.9,0.6,1.4c0,0.6-0.2,1.1-0.5,1.5C65.3,8.8,64.8,9,64.3,9
		c-0.5,0-1-0.2-1.4-0.5c-1.3-1.3-2.9-2.3-4.5-3c-1.7-0.7-3.4-1-5.3-0.9c-1.8,0.1-3.6,0.5-5.2,1.3c-1.6,0.8-3.1,1.9-4.3,3.3
		c-1.2,1.4-2.2,3-2.8,4.8c-0.6,1.8-0.9,3.6-0.9,5.6c0.1,1.9,0.5,3.8,1.2,5.5c0.7,1.7,1.8,3.3,3.1,4.6c1.3,1.3,2.9,2.3,4.5,3
		c1.7,0.7,3.4,1,5.3,0.9c1.8-0.1,3.6-0.5,5.2-1.3c1.6-0.8,3.1-1.9,4.3-3.3c0.4-0.4,0.8-0.6,1.4-0.6c0.5,0,1,0.2,1.4,0.5
		c0.4,0.4,0.6,0.9,0.6,1.4c0,0.6-0.2,1.1-0.5,1.5c-1.6,1.8-3.5,3.3-5.7,4.3c-2,0.9-4.2,1.5-6.6,1.6H53.6z"/>
	<path class="st1" d="M86,37.8c-1.8,0-3.5-0.5-5.2-1.4c-0.7-0.5-1.5-1-2.1-1.7c-0.7-0.6-1.3-1.4-1.9-2.2c-1.1-1.6-2-3.5-2.6-5.5
		c-0.6-2-0.9-4.2-0.9-6.5v-0.1V2c0-0.6,0.2-1.1,0.6-1.5C74.2,0.2,74.6,0,75.2,0c0.5,0,1,0.2,1.4,0.6C76.9,1,77.1,1.5,77.1,2v18.4
		c0,1.8,0.2,3.6,0.7,5.2c0.5,1.6,1.2,3.1,2.1,4.4c0.8,1.2,1.8,2.1,2.8,2.7c1,0.6,2.1,0.9,3.3,0.9c1.1,0,2.2-0.3,3.3-0.9
		c1-0.6,2-1.5,2.8-2.7c0.9-1.3,1.6-2.8,2.1-4.4c0.5-1.6,0.7-3.4,0.7-5.2V2c0-0.6,0.2-1.1,0.6-1.5C95.7,0.2,96.2,0,96.7,0
		c0.5,0,1,0.2,1.4,0.6C98.5,1,98.7,1.5,98.7,2v18.4v0.1c0,2.3-0.3,4.4-0.9,6.5c-0.6,2-1.5,3.9-2.7,5.5c-1.2,1.6-2.5,2.9-4,3.8
		C89.5,37.3,87.8,37.8,86,37.8z"/>
	<path class="st1" d="M118.9,37.9h-12c-0.5,0-1-0.2-1.4-0.6c-0.4-0.4-0.6-0.9-0.6-1.5c0-0.6,0.2-1.1,0.6-1.5
		c0.4-0.4,0.8-0.6,1.4-0.6h12c0.8,0,1.6-0.2,2.3-0.5s1.4-0.8,1.9-1.4c0.5-0.6,1-1.3,1.3-2c0.3-0.8,0.5-1.6,0.5-2.5
		c0-0.9-0.2-1.7-0.5-2.4c-0.3-0.8-0.7-1.4-1.2-2c-0.5-0.6-1.1-1-1.8-1.4c-0.7-0.4-1.4-0.6-2.2-0.6c-0.1,0-0.2,0.1-0.3,0.1h-4.8
		c-0.1,0-0.3,0-0.5-0.1c-1.2-0.1-2.4-0.5-3.4-1.1c-1-0.6-2-1.4-2.7-2.3c-0.8-0.9-1.4-2-1.8-3.2c-0.4-1.2-0.7-2.5-0.7-3.8
		c0-1.4,0.3-2.8,0.8-4.1c0.5-1.3,1.2-2.4,2.1-3.4c0.9-1,2-1.7,3.2-2.3c1.2-0.5,2.5-0.8,3.8-0.8h12c0.5,0,1,0.2,1.4,0.6
		c0.4,0.4,0.6,0.9,0.6,1.5c0,0.6-0.2,1.1-0.6,1.5c-0.4,0.4-0.8,0.6-1.4,0.6h-12c-0.8,0-1.6,0.2-2.3,0.5c-0.7,0.3-1.4,0.8-1.9,1.4
		c-0.5,0.6-1,1.3-1.3,2c-0.3,0.8-0.5,1.6-0.5,2.5s0.2,1.7,0.5,2.5c0.3,0.8,0.8,1.4,1.3,2c0.5,0.6,1.2,1,1.9,1.4
		c0.7,0.3,1.5,0.5,2.3,0.5h3.8c0.1,0,0.2-0.1,0.3-0.1c1.3,0,2.6,0.3,3.8,0.8s2.3,1.3,3.2,2.2c0.9,1,1.6,2.1,2.1,3.3
		c0.5,1.3,0.8,2.6,0.8,4.1c0,1.4-0.3,2.8-0.8,4.1c-0.5,1.3-1.2,2.4-2.1,3.3c-0.9,1-2,1.7-3.2,2.2C121.5,37.6,120.3,37.9,118.9,37.9z
		"/>
	<path class="st1" d="M147.4,37.8c-0.5,0-1-0.2-1.4-0.6c-0.4-0.4-0.6-0.9-0.6-1.5V4.1H137c-0.5,0-1-0.2-1.4-0.6
		c-0.4-0.4-0.6-0.9-0.6-1.5c0-0.6,0.2-1.1,0.6-1.5c0.4-0.4,0.8-0.6,1.4-0.6h20.7c0.5,0,1,0.2,1.4,0.6c0.4,0.4,0.6,0.9,0.6,1.5
		c0,0.6-0.2,1.1-0.6,1.5c-0.4,0.4-0.8,0.6-1.4,0.6h-8.4v31.6c0,0.6-0.2,1.1-0.6,1.5C148.4,37.7,147.9,37.8,147.4,37.8z"/>
	<path class="st1" d="M183.5,37.8c-2.3,0-4.6-0.5-6.9-1.5c-1-0.5-2-1.1-2.9-1.7c-0.9-0.7-1.8-1.4-2.7-2.3c-0.8-0.9-1.5-1.8-2.1-2.8
		c-0.6-1-1.2-2-1.6-3.1c-0.9-2.4-1.4-4.8-1.4-7.3c0-2.5,0.5-4.9,1.4-7.3c0.9-2.2,2.1-4.2,3.8-5.9c1.6-1.7,3.5-3.1,5.6-4
		c2.2-1,4.4-1.5,6.9-1.5c1.2,0,2.4,0.1,3.5,0.4c1.1,0.2,2.3,0.6,3.3,1.1c2.2,0.9,4,2.3,5.6,4c0.8,0.9,1.6,1.8,2.2,2.8
		c0.6,1,1.2,2.1,1.6,3.1c0.9,2.3,1.3,4.7,1.3,7.3c0,2.6-0.5,5.1-1.3,7.3c-0.9,2.3-2.2,4.2-3.8,5.9c-0.8,0.9-1.7,1.6-2.6,2.3
		c-0.9,0.7-1.9,1.2-3,1.7C188.1,37.4,185.8,37.8,183.5,37.8z M183.5,4.5c-1.8,0-3.6,0.4-5.3,1.1c-1.7,0.7-3.2,1.8-4.5,3.2
		c-1.3,1.4-2.3,3-3,4.8c-0.7,1.8-1,3.6-1,5.6c0,2,0.3,3.8,1,5.6c0.7,1.8,1.7,3.3,3,4.7c1.3,1.4,2.8,2.5,4.5,3.2
		c1.7,0.7,3.4,1.1,5.3,1.1c1.8,0,3.6-0.4,5.3-1.1c1.7-0.7,3.2-1.8,4.5-3.2c1.3-1.4,2.3-3,3-4.7c0.7-1.8,1-3.6,1-5.6
		c0-1.9-0.3-3.8-1-5.6c-0.7-1.8-1.7-3.4-3-4.8c-1.3-1.4-2.8-2.5-4.5-3.2C187,4.9,185.3,4.5,183.5,4.5z"/>
	<path class="st1" d="M236.9,37.9c-0.5,0-1-0.2-1.4-0.6c-0.4-0.4-0.6-0.9-0.6-1.5V7.1l-10.2,11.7c-0.4,0.4-0.9,0.7-1.4,0.7
		c-0.6,0-1.1-0.2-1.4-0.7l-10-11.4v28.5c0,0.6-0.2,1.1-0.6,1.5c-0.4,0.4-0.8,0.6-1.4,0.6c-0.5,0-1-0.2-1.4-0.6
		c-0.4-0.4-0.6-0.9-0.6-1.5V2.1V2c0-0.3,0-0.5,0.1-0.8c0.1-0.3,0.3-0.5,0.4-0.6c0.1-0.1,0.1-0.1,0.1-0.1c0.1-0.1,0.1-0.1,0.2-0.2
		c0.1-0.1,0.2-0.1,0.2-0.2c0.3-0.1,0.5-0.1,0.6-0.1L210,0c0.3,0.1,0.6,0.1,0.8,0.2c0.2,0.1,0.4,0.3,0.6,0.5h0l11.9,13.7l11.9-13.7
		c0.4-0.5,1-0.7,1.5-0.6c0,0,0.1-0.1,0.1-0.1c0.5,0,1,0.2,1.4,0.6c0.4,0.4,0.6,0.9,0.6,1.5v33.8c0,0.6-0.2,1.1-0.6,1.5
		C237.9,37.7,237.4,37.9,236.9,37.9z"/>
	<path class="st1" d="M291.6,37.9c-0.5,0-1-0.2-1.4-0.6c-0.4-0.4-0.6-0.9-0.6-1.5V7.1l-10.2,11.7c-0.4,0.4-0.9,0.7-1.4,0.7
		s-1.1-0.2-1.4-0.7l-10-11.4v28.5c0,0.6-0.2,1.1-0.6,1.5c-0.4,0.4-0.8,0.6-1.4,0.6c-0.5,0-1-0.2-1.4-0.6c-0.4-0.4-0.6-0.9-0.6-1.5
		V2.1V2c0-0.3,0-0.5,0.1-0.8c0.1-0.3,0.3-0.5,0.4-0.6c0.1-0.1,0.1-0.1,0.1-0.1c0.1-0.1,0.1-0.1,0.2-0.2c0.1-0.1,0.2-0.1,0.2-0.2
		c0.3-0.1,0.5-0.1,0.6-0.1l0.1-0.1c0.3,0.1,0.6,0.1,0.8,0.2c0.2,0.1,0.4,0.3,0.6,0.5h0l11.9,13.7L290,0.7c0.4-0.5,1-0.7,1.5-0.6
		c0,0,0.1-0.1,0.1-0.1c0.5,0,1,0.2,1.4,0.6c0.4,0.4,0.6,0.9,0.6,1.5v33.8c0,0.6-0.2,1.1-0.6,1.5C292.6,37.7,292.2,37.9,291.6,37.9z"
		/>
	<path class="st1" d="M320.8,37.9c-0.5,0-1-0.2-1.4-0.6c-0.4-0.4-0.6-0.9-0.6-1.5v-14h-15v14c0,0.6-0.2,1.1-0.6,1.5
		c-0.4,0.4-0.8,0.6-1.4,0.6c-0.5,0-1-0.2-1.4-0.6c-0.4-0.4-0.6-0.9-0.6-1.5v-24v-0.2c0-1.5,0.3-3,0.9-4.4c0.6-1.4,1.4-2.7,2.4-3.8
		c1.1-1.2,2.3-2,3.6-2.6c1.4-0.6,2.8-0.9,4.4-0.9c1.5,0,3,0.3,4.4,0.9c1.4,0.6,2.6,1.5,3.7,2.6c1,1.1,1.8,2.3,2.4,3.8
		c0.6,1.4,0.9,2.9,0.9,4.4v0.2v24c0,0.6-0.2,1.1-0.6,1.5C321.8,37.8,321.3,37.9,320.8,37.9z M303.9,17.8h15v-5.7
		c0-1.1-0.2-2.1-0.6-3.1c-0.4-1-0.9-1.8-1.6-2.5c-0.7-0.7-1.5-1.3-2.4-1.7c-0.9-0.4-1.9-0.6-2.9-0.6c-1,0-2,0.2-2.9,0.6
		c-0.9,0.4-1.7,1-2.4,1.7c-0.7,0.7-1.2,1.6-1.6,2.5c-0.4,1-0.6,2-0.6,3.1V17.8z"/>
	<path class="st1" d="M335.6,38h-4.9h0c-0.5,0-1-0.2-1.3-0.6c-0.4-0.4-0.6-0.9-0.6-1.5V2.3V2.1c0-0.6,0.2-1.1,0.6-1.5
		c0.4-0.4,0.8-0.6,1.4-0.6h4.9c2.2,0,4.3,0.5,6.4,1.5c1.9,1,3.6,2.4,5.2,4.1c1.5,1.8,2.7,3.9,3.5,6.1c0.8,2.3,1.2,4.7,1.2,7.2
		c0,2.5-0.4,4.9-1.2,7.2c-0.8,2.3-2,4.3-3.5,6.1c-1.5,1.7-3.2,3.1-5.2,4.1C340,37.5,337.8,38,335.6,38z M332.7,33.9h3
		c1.7,0,3.3-0.4,4.8-1.2c1.5-0.8,2.8-1.8,3.9-3.2c1.1-1.3,2-2.9,2.6-4.7c0.6-1.8,1-3.7,1-5.8c0-2-0.3-4-1-5.8
		c-0.6-1.8-1.5-3.4-2.6-4.7c-1.1-1.3-2.4-2.4-3.9-3.2s-3.1-1.2-4.8-1.2h-3V33.9z"/>
	<path class="st1" d="M376.7,37.8H360c-0.5,0-1-0.2-1.4-0.6c-0.4-0.4-0.6-0.9-0.6-1.5V2.5c0-0.6,0.2-1.1,0.6-1.5
		c0.4-0.4,0.8-0.6,1.4-0.6h16.7c0.5,0,1,0.2,1.4,0.6c0.4,0.4,0.6,0.9,0.6,1.5S378.4,3.6,378,4c-0.4,0.4-0.8,0.6-1.4,0.6h-14.8v12.8
		h9.8c0.5,0,1,0.2,1.4,0.6c0.4,0.4,0.6,0.9,0.6,1.5c0,0.6-0.2,1.1-0.6,1.5c-0.4,0.4-0.8,0.6-1.4,0.6h-9.8v12.3h14.8
		c0.5,0,1,0.2,1.4,0.6c0.4,0.4,0.6,0.9,0.6,1.5c0,0.6-0.2,1.1-0.6,1.5C377.7,37.7,377.2,37.8,376.7,37.8z"/>
</g>
<g id="coenie">
	<path d="M73.1,66.1c-0.2,0-0.3,0-0.4,0h-3.6c-0.3,0-0.6-0.1-0.9-0.3c-0.3-0.2-0.4-0.4-0.5-0.7v0c0,0,0-0.1,0-0.2c0-0.1,0-0.1,0-0.2
		l0-22.7c0-0.4,0.1-0.7,0.4-1c0.3-0.3,0.7-0.4,1.1-0.4h0.2h1.9c0.1,0,0.2,0,0.3,0c0.1,0,0.2,0,0.3,0.1c1,0.1,1.9,0.3,2.7,0.7
		c0.8,0.4,1.5,0.9,2.2,1.5c0.6,0.6,1.1,1.3,1.5,2.1c0.4,0.8,0.5,1.7,0.5,2.6c0,1-0.2,1.9-0.6,2.7c-0.4,0.8-0.9,1.6-1.6,2.2
		c1.3,0.6,2.3,1.4,3.1,2.6c0.8,1.1,1.2,2.4,1.2,3.8c0,1-0.2,1.9-0.6,2.7c-0.4,0.9-0.9,1.6-1.6,2.2c-0.7,0.6-1.5,1.1-2.4,1.5
		C75.1,65.9,74.1,66.1,73.1,66.1z M70.6,52.1h0.9c0.6-0.1,1.1-0.2,1.6-0.5c0.5-0.2,0.9-0.6,1.3-0.9c0.4-0.4,0.7-0.8,0.9-1.3
		c0.2-0.5,0.3-1,0.3-1.6c0-0.6-0.1-1.2-0.4-1.7c-0.2-0.5-0.6-1-1-1.4c-0.4-0.4-0.9-0.7-1.4-0.9c-0.5-0.2-1.1-0.3-1.8-0.3
		c-0.2,0-0.4,0-0.5-0.1V52.1z M70.6,63.3h2.5c0.2,0,0.3,0,0.3,0c0.6,0,1.1-0.2,1.7-0.4c0.5-0.2,1-0.6,1.3-0.9
		c0.4-0.4,0.7-0.8,0.9-1.3c0.2-0.5,0.3-1,0.3-1.6c0-0.6-0.1-1.2-0.4-1.7c-0.2-0.5-0.6-1-1-1.4c-0.4-0.4-0.9-0.7-1.5-0.9
		c-0.6-0.2-1.1-0.3-1.8-0.3h-1.5c-0.1,0-0.2,0-0.3,0c-0.1,0-0.2,0-0.3,0h-0.2h-0.2V63.3z"/>
	<path d="M94.7,66.1c-0.4,0-0.7-0.1-1-0.4c-0.3-0.3-0.4-0.6-0.4-1V50.9c-1.9-0.3-3.5-1.1-4.9-2.5c-0.8-0.8-1.5-1.8-1.9-2.9
		c-0.4-1.1-0.7-2.2-0.7-3.4c0-0.4,0.1-0.7,0.4-1c0.3-0.3,0.6-0.4,1-0.4c0.4,0,0.7,0.1,1,0.4c0.3,0.3,0.4,0.6,0.4,1
		c0,0.8,0.2,1.6,0.5,2.4c0.3,0.7,0.8,1.4,1.3,1.9s1.2,1,1.9,1.3c0.7,0.3,1.5,0.5,2.4,0.5c0.8,0,1.6-0.2,2.4-0.5
		c0.7-0.3,1.4-0.8,1.9-1.3s1-1.2,1.3-1.9c0.3-0.7,0.5-1.5,0.5-2.4c0-0.4,0.1-0.7,0.4-1c0.3-0.3,0.6-0.4,1-0.4c0.4,0,0.7,0.1,1,0.4
		c0.3,0.3,0.4,0.6,0.4,1c0,1.2-0.2,2.3-0.7,3.4c-0.4,1.1-1.1,2-1.9,2.9c-1.4,1.4-3,2.2-4.9,2.5v13.8c0,0.4-0.1,0.7-0.4,1
		C95.4,66,95.1,66.1,94.7,66.1z"/>
	<path d="M134,65.9c-1.5,0-2.9-0.3-4.3-0.8c-1.5-0.5-2.9-1.4-4.2-2.6c-1.2-1.1-2.2-2.5-2.9-4c-0.6-1.4-1-3-1.1-4.7
		c0-1.6,0.2-3.2,0.7-4.7c0.6-1.6,1.4-3,2.6-4.2c0.6-0.6,1.2-1.2,1.9-1.6c0.7-0.5,1.4-0.9,2.1-1.2c1.4-0.6,3-1,4.7-1.1
		c1.7,0,3.3,0.2,4.7,0.8c1.6,0.6,3,1.4,4.2,2.6c0.3,0.3,0.4,0.6,0.4,1c0,0.4-0.1,0.7-0.4,1c-0.3,0.3-0.6,0.4-1,0.4
		c-0.4,0-0.7-0.1-1-0.4c-1-0.9-2-1.6-3.2-2c-1.2-0.5-2.4-0.7-3.7-0.6c-1.3,0-2.5,0.3-3.7,0.8c-1.2,0.5-2.2,1.3-3.1,2.2
		c-0.9,1-1.5,2-2,3.2c-0.5,1.2-0.7,2.4-0.6,3.7c0,1.3,0.3,2.5,0.8,3.7c0.5,1.2,1.3,2.2,2.2,3.1c1,0.9,2,1.5,3.2,2
		c1.2,0.5,2.4,0.7,3.7,0.6c1.3,0,2.5-0.3,3.7-0.8c1.2-0.5,2.2-1.3,3.1-2.2c0.3-0.3,0.6-0.4,1-0.4c0.4,0,0.7,0.1,1,0.4
		c0.3,0.3,0.4,0.6,0.4,1c0,0.4-0.1,0.7-0.4,1c-1.2,1.2-2.5,2.2-4.1,2.9c-1.4,0.6-3,1-4.7,1.1H134z"/>
	<path d="M161.3,66c-1.7,0-3.3-0.3-4.9-1c-0.7-0.3-1.4-0.7-2.1-1.2c-0.7-0.4-1.3-1-1.9-1.5c-0.6-0.6-1.1-1.2-1.5-1.9
		c-0.4-0.7-0.8-1.4-1.2-2.1c-0.7-1.6-1-3.2-1-4.9c0-1.7,0.3-3.3,1-4.9c0.6-1.5,1.5-2.8,2.7-4c1.2-1.2,2.5-2.1,4-2.7
		c1.5-0.7,3.2-1,4.9-1c0.8,0,1.7,0.1,2.5,0.2c0.8,0.2,1.6,0.4,2.4,0.8c1.5,0.6,2.9,1.5,4,2.7c0.6,0.6,1.1,1.2,1.6,1.9
		c0.4,0.7,0.8,1.4,1.1,2.1c0.6,1.5,1,3.1,1,4.9c0,1.8-0.3,3.4-1,4.9c-0.7,1.5-1.6,2.8-2.7,4c-0.6,0.6-1.2,1.1-1.9,1.5
		c-0.7,0.4-1.4,0.8-2.1,1.2C164.6,65.7,162.9,66,161.3,66z M161.3,43.7c-1.3,0-2.6,0.2-3.7,0.7c-1.2,0.5-2.3,1.2-3.2,2.1
		c-0.9,0.9-1.7,2-2.1,3.2c-0.5,1.2-0.7,2.4-0.7,3.7c0,1.3,0.2,2.6,0.7,3.8c0.5,1.2,1.2,2.2,2.1,3.2c0.9,0.9,2,1.7,3.2,2.1
		c1.2,0.5,2.4,0.7,3.7,0.7c1.3,0,2.6-0.2,3.7-0.7c1.2-0.5,2.3-1.2,3.2-2.1c0.9-0.9,1.6-2,2.1-3.2c0.5-1.2,0.7-2.4,0.7-3.8
		c0-1.3-0.2-2.6-0.7-3.7c-0.5-1.2-1.2-2.3-2.1-3.2c-0.9-0.9-2-1.6-3.2-2.1C163.8,43.9,162.6,43.7,161.3,43.7z"/>
	<path d="M192.5,66h-11.9c-0.4,0-0.7-0.1-1-0.4c-0.3-0.3-0.4-0.6-0.4-1V42.3c0-0.4,0.1-0.7,0.4-1c0.3-0.3,0.6-0.4,1-0.4h11.9
		c0.4,0,0.7,0.1,1,0.4c0.3,0.3,0.4,0.6,0.4,1c0,0.4-0.1,0.7-0.4,1c-0.3,0.3-0.6,0.4-1,0.4H182v8.6h7c0.4,0,0.7,0.1,1,0.4
		c0.3,0.3,0.4,0.6,0.4,1c0,0.4-0.1,0.7-0.4,1c-0.3,0.3-0.6,0.4-1,0.4h-7v8.2h10.5c0.4,0,0.7,0.1,1,0.4c0.3,0.3,0.4,0.6,0.4,1
		c0,0.4-0.1,0.7-0.4,1C193.2,65.9,192.9,66,192.5,66z"/>
	<path d="M214.3,66.1c-0.3,0-0.6-0.1-0.8-0.3c-0.2-0.1-0.3-0.3-0.4-0.4L202.1,47v17.7c0,0.4-0.1,0.7-0.4,1c-0.3,0.3-0.6,0.4-1,0.4
		c-0.4,0-0.7-0.1-1-0.4c-0.3-0.3-0.4-0.6-0.4-1V42.1v-0.1c0-0.1,0-0.2,0.1-0.3c0-0.1,0.1-0.2,0.1-0.3c0.1-0.2,0.2-0.3,0.4-0.4
		c0,0,0.1-0.1,0.2-0.1c0.1,0,0.2-0.1,0.3-0.1c0.2,0,0.3-0.1,0.5,0c0.2,0,0.4,0.1,0.5,0.2c0.2,0.1,0.3,0.2,0.4,0.4l0.1,0.1L213,59.8
		V42.1c0-0.4,0.1-0.7,0.4-1c0.3-0.3,0.6-0.4,1-0.4c0.4,0,0.7,0.1,1,0.4c0.3,0.3,0.4,0.6,0.4,1v22.6c0,0.4-0.1,0.7-0.4,1
		C215.1,66,214.7,66.1,214.3,66.1z"/>
	<path d="M222.3,66.1c-0.4,0-0.7-0.1-1-0.4c-0.3-0.3-0.4-0.6-0.4-1V42.1c0-0.4,0.1-0.7,0.4-1c0.3-0.3,0.6-0.4,1-0.4
		c0.4,0,0.7,0.1,1,0.4c0.3,0.3,0.4,0.6,0.4,1v22.7c0,0.4-0.1,0.7-0.4,1C223,66,222.7,66.1,222.3,66.1z"/>
	<path d="M242.2,66h-11.9c-0.4,0-0.7-0.1-1-0.4c-0.3-0.3-0.4-0.6-0.4-1V42.3c0-0.4,0.1-0.7,0.4-1c0.3-0.3,0.6-0.4,1-0.4h11.9
		c0.4,0,0.7,0.1,1,0.4c0.3,0.3,0.4,0.6,0.4,1c0,0.4-0.1,0.7-0.4,1c-0.3,0.3-0.6,0.4-1,0.4h-10.5v8.6h7c0.4,0,0.7,0.1,1,0.4
		c0.3,0.3,0.4,0.6,0.4,1c0,0.4-0.1,0.7-0.4,1c-0.3,0.3-0.6,0.4-1,0.4h-7v8.2h10.5c0.4,0,0.7,0.1,1,0.4c0.3,0.3,0.4,0.6,0.4,1
		c0,0.4-0.1,0.7-0.4,1C242.9,65.9,242.6,66,242.2,66z"/>
	<path d="M282.5,66.1c-0.4,0-0.7-0.1-1-0.4c-0.3-0.3-0.4-0.6-0.4-1V45.4l-7.2,7.8c-0.3,0.3-0.6,0.4-1,0.4c-0.4,0-0.8-0.1-1-0.4
		l-7.1-7.7v19.1c0,0.4-0.1,0.7-0.4,1s-0.6,0.4-1,0.4c-0.4,0-0.7-0.1-1-0.4c-0.3-0.3-0.4-0.6-0.4-1V42.1v0c0-0.2,0-0.4,0.1-0.5
		c0.1-0.2,0.2-0.3,0.3-0.4c0,0,0.1-0.1,0.1-0.1c0,0,0.1-0.1,0.2-0.1c0.1,0,0.1-0.1,0.2-0.1c0.2,0,0.3-0.1,0.4-0.1l0.1,0
		c0.2,0,0.4,0.1,0.5,0.1c0.2,0.1,0.3,0.2,0.4,0.3h0l8.5,9.2l8.5-9.2c0.3-0.3,0.7-0.5,1.1-0.4c0,0,0,0,0.1,0c0.4,0,0.7,0.1,1,0.4
		c0.3,0.3,0.4,0.6,0.4,1v22.7c0,0.4-0.1,0.7-0.4,1C283.2,65.9,282.9,66.1,282.5,66.1z"/>
	<path d="M303.9,66.1c-0.4,0-0.7-0.1-1-0.4c-0.3-0.3-0.4-0.6-0.4-1v-9.4h-10.7v9.4c0,0.4-0.1,0.7-0.4,1c-0.3,0.3-0.6,0.4-1,0.4
		c-0.4,0-0.7-0.1-1-0.4c-0.3-0.3-0.4-0.6-0.4-1V48.6v-0.1c0-1,0.2-2,0.7-3c0.4-0.9,1-1.8,1.7-2.5c0.8-0.8,1.6-1.4,2.6-1.8
		c1-0.4,2-0.6,3.1-0.6c1.1,0,2.1,0.2,3.1,0.6c1,0.4,1.9,1,2.6,1.8c0.7,0.7,1.3,1.6,1.7,2.5c0.4,1,0.6,1.9,0.7,3v0.1v16.1
		c0,0.4-0.1,0.7-0.4,1C304.6,66,304.3,66.1,303.9,66.1z M291.9,52.6h10.7v-3.8c0-0.7-0.1-1.4-0.4-2.1c-0.3-0.7-0.7-1.2-1.2-1.7
		c-0.5-0.5-1-0.9-1.7-1.1c-0.7-0.3-1.3-0.4-2.1-0.4s-1.4,0.1-2.1,0.4s-1.2,0.7-1.7,1.1c-0.5,0.5-0.9,1-1.2,1.7
		c-0.3,0.7-0.4,1.3-0.4,2.1V52.6z"/>
	<path d="M322.2,66.2c-0.2,0-0.4-0.1-0.7-0.2c-0.2-0.1-0.4-0.3-0.5-0.5l-6.9-9.8h-1.1l0,9c0,0.4-0.1,0.7-0.4,1
		c-0.3,0.3-0.6,0.4-1,0.4s-0.7-0.1-1-0.4c-0.3-0.3-0.4-0.6-0.4-1l0.1-22.5c0-0.3,0.1-0.5,0.2-0.7c0.1-0.2,0.3-0.3,0.5-0.5
		c0.2-0.2,0.4-0.2,0.8-0.2h3.3c1.2,0,2.3,0.2,3.3,0.5c1,0.4,2,0.9,2.8,1.5c0.8,0.6,1.4,1.4,1.9,2.4c0.5,1,0.7,2,0.7,3
		c0,1.1-0.2,2.1-0.7,3c-0.3,0.5-0.5,0.9-0.8,1.3c-0.3,0.4-0.7,0.8-1.1,1.1c-1.1,0.9-2.4,1.5-3.8,1.8l5.9,8.5c0.2,0.3,0.3,0.7,0.2,1
		c-0.1,0.4-0.3,0.7-0.6,0.9C322.7,66.1,322.4,66.2,322.2,66.2z M313.1,53h2c0.8,0,1.6-0.1,2.4-0.4c0.7-0.3,1.4-0.6,2-1.1
		c1.1-0.9,1.7-2,1.7-3.2c0-1.2-0.6-2.3-1.7-3.2c-1.2-1-2.7-1.4-4.4-1.4h-1.9L313.1,53z"/>
	<path d="M343.7,66.1c-0.4,0-0.7-0.1-1-0.4c-0.3-0.3-0.4-0.6-0.4-1v-9.4h-10.7v9.4c0,0.4-0.1,0.7-0.4,1c-0.3,0.3-0.6,0.4-1,0.4
		c-0.4,0-0.7-0.1-1-0.4c-0.3-0.3-0.4-0.6-0.4-1V48.6v-0.1c0-1,0.2-2,0.7-3c0.4-0.9,1-1.8,1.7-2.5c0.8-0.8,1.6-1.4,2.6-1.8
		c1-0.4,2-0.6,3.1-0.6c1.1,0,2.1,0.2,3.1,0.6s1.9,1,2.6,1.8c0.7,0.7,1.3,1.6,1.7,2.5c0.4,1,0.6,1.9,0.7,3v0.1v16.1
		c0,0.4-0.1,0.7-0.4,1C344.4,66,344.1,66.1,343.7,66.1z M331.7,52.6h10.7v-3.8c0-0.7-0.1-1.4-0.4-2.1c-0.3-0.7-0.7-1.2-1.2-1.7
		c-0.5-0.5-1-0.9-1.7-1.1c-0.7-0.3-1.3-0.4-2.1-0.4c-0.7,0-1.4,0.1-2.1,0.4c-0.6,0.3-1.2,0.7-1.7,1.1c-0.5,0.5-0.9,1-1.2,1.7
		c-0.3,0.7-0.4,1.3-0.4,2.1V52.6z"/>
	<path d="M351.4,66.1c-0.4,0-0.7-0.1-1-0.4c-0.3-0.3-0.4-0.6-0.4-1V42.1c0-0.4,0.1-0.7,0.4-1c0.3-0.3,0.6-0.4,1-0.4
		c0.4,0,0.7,0.1,1,0.4c0.3,0.3,0.4,0.6,0.4,1v22.7c0,0.4-0.1,0.7-0.4,1C352.1,66,351.8,66.1,351.4,66.1z"/>
	<path d="M368,66.1h-8.6c-0.4,0-0.7-0.1-1-0.4c-0.3-0.3-0.4-0.6-0.4-1c0-0.4,0.1-0.7,0.4-1c0.3-0.3,0.6-0.4,1-0.4h8.6
		c0.6,0,1.2-0.1,1.7-0.3c0.5-0.2,1-0.5,1.4-0.9c0.4-0.4,0.7-0.8,0.9-1.4c0.2-0.5,0.3-1.1,0.3-1.7c0-0.6-0.1-1.1-0.3-1.6
		c-0.2-0.5-0.5-1-0.9-1.3c-0.4-0.4-0.8-0.7-1.3-0.9c-0.5-0.2-1-0.4-1.6-0.4c0,0-0.1,0-0.2,0h-3.4c-0.1,0-0.2,0-0.4-0.1
		c-0.9-0.1-1.7-0.3-2.4-0.8c-0.7-0.4-1.4-0.9-1.9-1.5c-0.5-0.6-1-1.3-1.3-2.1c-0.3-0.8-0.5-1.6-0.5-2.5c0-1,0.2-1.9,0.5-2.7
		c0.4-0.9,0.9-1.6,1.5-2.2s1.4-1.1,2.2-1.5c0.9-0.4,1.8-0.5,2.7-0.5h8.6c0.4,0,0.7,0.1,1,0.4c0.3,0.3,0.4,0.6,0.4,1
		c0,0.4-0.1,0.7-0.4,1c-0.3,0.3-0.6,0.4-1,0.4H365c-0.6,0-1.1,0.1-1.7,0.3c-0.5,0.2-1,0.5-1.4,0.9c-0.4,0.4-0.7,0.8-0.9,1.4
		c-0.2,0.5-0.3,1.1-0.3,1.7c0,0.6,0.1,1.2,0.3,1.7c0.2,0.5,0.5,1,0.9,1.4c0.4,0.4,0.8,0.7,1.4,0.9c0.5,0.2,1.1,0.3,1.7,0.3h2.7
		c0,0,0.1,0,0.2,0c1,0,1.9,0.2,2.7,0.5c0.9,0.4,1.6,0.9,2.2,1.5s1.1,1.4,1.5,2.2c0.4,0.9,0.5,1.8,0.5,2.7c0,1-0.2,1.9-0.5,2.7
		c-0.4,0.9-0.9,1.6-1.5,2.2c-0.6,0.6-1.4,1.1-2.2,1.5C369.8,65.9,368.9,66.1,368,66.1z"/>
</g>
</svg>
