<?xml version="1.0" encoding="utf-8"?>
<!-- Generator: Adobe Illustrator 24.2.3, SVG Export Plug-In . SVG Version: 6.00 Build 0)  -->
<svg version="1.1" id="Layer_1" xmlns="http://www.w3.org/2000/svg" xmlns:xlink="http://www.w3.org/1999/xlink" x="0px" y="0px"
	 viewBox="0 0 500 500" style="enable-background:new 0 0 500 500;" xml:space="preserve">
<style type="text/css">
	.st0{fill:#B3B3B3;}
</style>
<g>
	<g>
		<g>
			<g>
				<g>
					<g>
						<path class="st0" d="M205.8,282.9c12.6-12.6,18.9-27.8,18.9-45.5c0-17.8-6.3-32.9-18.9-45.3c-3-3-6.1-5.6-9.4-7.9
							c-1.7-1.2-3.4-2.2-5.1-3.2c-9.2-5.2-19.5-7.8-30.9-7.8h-53.4c-0.9,0-1.7,0.8-1.7,1.7V300c0,0.9,0.8,1.7,1.7,1.7h53.4
							c11.4,0,21.7-2.6,30.9-7.7c1.7-0.9,3.4-2,5.1-3.1C199.8,288.5,202.9,285.9,205.8,282.9z M191.4,253.8c-1.6,3-3.7,5.8-6.3,8.4
							c-6.7,6.7-14.9,10.1-24.6,10.1h-24c-0.9,0-1.7-0.8-1.7-1.7v-66.4c0-0.9,0.8-1.7,1.7-1.7h24c9.5,0,17.7,3.4,24.6,10.3
							c2.6,2.6,4.7,5.4,6.3,8.4c2.6,4.9,4,10.3,4,16.2C195.4,243.4,194.1,248.9,191.4,253.8z"/>
					</g>
				</g>
				<g>
					<g>
						<path class="st0" d="M346.7,173.2c-12.9,0-24.4,3.3-34.6,9.9c-0.8,0.5-1,1.7-0.4,2.5c6.1,7.7,9.1,16.8,9.1,27
							c0,0.4,0,0.9,0,1.3l9.5-10.8c0.3-0.4,0.8-0.6,1.3-0.6h59.3c0.9,0,1.7-0.8,1.7-1.7v-26c0-0.9-0.8-1.7-1.7-1.7H346.7z"/>
					</g>
				</g>
				<g>
					<g>
						<path class="st0" d="M321.9,262.2c-0.4-0.4-0.7-0.7-1.1-1.1c0,0.4,0,0.7,0,1.1c0,10.2-3.1,19.3-9.1,27.1
							c-0.6,0.8-0.5,1.9,0.4,2.5c10.2,6.6,21.7,9.9,34.6,9.9h44.2c0.9,0,1.7-0.8,1.7-1.7v-26c0-0.9-0.8-1.7-1.7-1.7h-44.2
							C336.9,272.3,328.7,268.9,321.9,262.2z"/>
					</g>
				</g>
				<g>
					<g>
						<path class="st0" d="M306,238.5c-0.5-0.6-0.5-1.5,0-2.1c6.5-8.2,9.8-16.1,9.8-23.7c0-9.7-3-18.2-9.2-25.4
							c-0.7-0.9-1.5-1.7-2.3-2.5c-7.7-7.7-17-11.6-27.9-11.6h-78.1c-0.9,0-1.7,0.8-1.7,1.7v2.3c0,0.6,0.3,1.1,0.8,1.4
							c4.3,2.8,8.4,6.1,12.2,9.9c5.5,5.5,9.9,11.4,13.2,17.9c0.8,1.6,3.2,1,3.2-0.8v-1.4c0-0.9,0.8-1.7,1.7-1.7h48.8
							c2.8,0,5.2,1,7.2,2.9c2,2,2.9,4.3,2.9,7.2c0,2.8-1,5.2-2.9,7.2c-2,2-4.3,2.9-7.2,2.9h-32.8c-0.7,0-1.3,0.4-1.6,1l-11.4,26
							c-0.5,1.1,0.3,2.4,1.6,2.4h44.2c2.8,0,5.2,1,7.2,2.9c2,2,2.9,4.3,2.9,7.2c0,2.8-1,5.2-2.9,7.2c-2,2-4.3,2.9-7.2,2.9h-48.8
							c-0.9,0-1.7-0.8-1.7-1.7v-1.4c0-1.8-2.4-2.4-3.2-0.8c-3.3,6.5-7.7,12.6-13.2,18.1c-3.8,3.8-7.9,7.1-12.2,9.8
							c-0.5,0.3-0.8,0.8-0.8,1.4v2.2c0,0.9,0.8,1.7,1.7,1.7h78.1c10.9,0,20.2-3.8,27.9-11.6c0.8-0.8,1.6-1.6,2.2-2.4
							c6.2-7.2,9.3-15.7,9.3-25.4C315.8,254.6,312.5,246.7,306,238.5z"/>
					</g>
				</g>
			</g>
		</g>
	</g>
	<g>
		<path class="st0" d="M118.8,326.3h-2.3l-1.5-3.4l-1.5,3.4h-2.3l-5.5-12.5h3.2l3.5,7.8l1.1-2.4l-2.4-5.4h3.2l0.8,1.8l0.8-1.8h3.2
			l-2.4,5.4l1.1,2.4l3.5-7.8h3.2L118.8,326.3z"/>
		<path class="st0" d="M125,326.3v-12.5h10.7v2.8h-7.8v2h6.1v2.8h-6.1v2h7.8v2.8H125z"/>
		<path class="st0" d="M147.9,322.5c0,1.1-0.4,2-1.1,2.7s-1.6,1.1-2.7,1.1h-7.7v-12.5h7.7c1.1,0,2,0.4,2.7,1.1
			c0.7,0.7,1.1,1.6,1.1,2.7c0,0.8-0.3,1.6-1,2.4C147.6,320.9,147.9,321.7,147.9,322.5z M145.1,322.5c0-0.3-0.1-0.5-0.3-0.7
			c-0.2-0.2-0.4-0.3-0.7-0.3h-4.5l1.2-2.8h3.3c0.3,0,0.5-0.1,0.7-0.3c0.2-0.2,0.3-0.4,0.3-0.7c0-0.3-0.1-0.5-0.3-0.7
			c-0.2-0.2-0.4-0.3-0.7-0.3h-4.9v6.8h4.9c0.3,0,0.5-0.1,0.7-0.3C145,323,145.1,322.7,145.1,322.5z"/>
		<path class="st0" d="M164.7,320.1c0,1.7-0.6,3.2-1.8,4.4c-1.2,1.2-2.7,1.8-4.4,1.8h-5.3v-12.5h5.3c1.7,0,3.2,0.6,4.4,1.8
			C164.1,316.9,164.7,318.3,164.7,320.1z M161.8,320.1c0-0.9-0.3-1.7-1-2.4c-0.7-0.7-1.5-1-2.4-1H156v6.8h2.5c0.9,0,1.7-0.3,2.4-1
			C161.5,321.8,161.8,321,161.8,320.1z"/>
		<path class="st0" d="M165.4,326.3v-12.5h10.7v2.8h-7.8v2h6.1v2.8h-6.1v2h7.8v2.8H165.4z"/>
		<path class="st0" d="M188.3,322.5c0,1.1-0.4,2-1.1,2.7s-1.6,1.1-2.7,1.1h-7.7v-2.8h7.7c0.3,0,0.5-0.1,0.7-0.3
			c0.2-0.2,0.3-0.4,0.3-0.7c0-0.3-0.1-0.5-0.3-0.7c-0.2-0.2-0.4-0.3-0.7-0.3h-3.9c-1.1,0-2-0.4-2.7-1.1c-0.7-0.7-1.1-1.6-1.1-2.7
			s0.4-2,1.1-2.7c0.7-0.7,1.6-1.1,2.7-1.1h7.7v2.8h-7.7c-0.3,0-0.5,0.1-0.7,0.3c-0.2,0.2-0.3,0.4-0.3,0.7c0,0.3,0.1,0.5,0.3,0.7
			c0.2,0.2,0.4,0.3,0.7,0.3h3.9c1.1,0,2,0.4,2.7,1.1S188.3,321.4,188.3,322.5z"/>
		<path class="st0" d="M189.1,326.3v-12.5h2.8v12.5H189.1z"/>
		<path class="st0" d="M198.8,326.3c-1.7,0-3.2-0.6-4.4-1.8c-1.2-1.2-1.8-2.7-1.8-4.4s0.6-3.2,1.8-4.4c1.2-1.2,2.7-1.8,4.4-1.8h6.2
			v2.8h-6.2c-0.9,0-1.7,0.3-2.4,1c-0.7,0.7-1,1.4-1,2.4c0,0.9,0.3,1.8,1,2.4c0.7,0.7,1.5,1,2.4,1h3.4v-2h-1.8l-1.2-2.8h5.9v7.7
			H198.8z"/>
		<path class="st0" d="M214.5,326.3l-5.9-7.1v7.1h-2.8v-12.5h2.8l5.9,7.1v-7.1h2.8v12.5H214.5z"/>
		<path class="st0" d="M240.4,317.8l-0.1,0.3c0.4,0.2,0.8,0.3,1.2,0.4c0.4,0.1,1,0.1,1.8,0.1c0.5,0,1-0.1,1.6-0.2l0.5-1.1l0.4-1.1
			l0.8-2c0.8-2,1.4-3.3,1.7-3.9s0.7-1.4,1.1-2.1c0.4-0.7,0.7-1.3,1.1-1.7c0.3-0.4,0.8-0.9,1.5-1.4c0.7-0.5,1.3-0.8,2-0.8
			c0.1,0,0.5,0.1,1.2,0.3c0.7,0.2,1,0.8,1,1.8c0,0.3-0.1,0.6-0.2,1c-0.1,0.4-0.3,0.7-0.6,1c-0.3,0.3-0.7,0.4-1.1,0.4
			c-0.6,0-1-0.2-1.2-0.6s-0.3-0.7-0.3-1c0-0.3,0.1-0.5,0.2-0.8c0.1-0.3,0.3-0.5,0.4-0.7c0.1-0.2,0.2-0.3,0.3-0.4V305
			c-0.1-0.1-0.3-0.2-0.5-0.2c-0.5,0-1,0.3-1.5,1l-1.2,1.5l-0.1,0.1c-0.2,0.4-0.5,0.7-0.6,1.1c-0.2,0.4-0.5,1-0.9,1.8l-0.9,1.9
			l-0.1,0.2l-0.7,1.8l-0.3,0.8l-0.5,1.1l-0.7,2c1.1-0.1,2.3-0.5,3.6-1.1c1.3-0.6,2.6-1.6,4-2.8l1.1-1l0.2,0.3l-0.5,0.5l-0.9,0.8
			c-0.7,0.6-1.3,1.1-1.8,1.4c-0.5,0.3-1,0.6-1.7,1c-0.7,0.3-1.2,0.6-1.5,0.7c-0.3,0.1-0.6,0.2-0.9,0.3c-0.3,0.1-0.7,0.2-1,0.3
			c-0.3,0.1-0.6,0.1-0.9,0.2l-0.2,0.2l-0.1,0.4l-0.1,0.3l-0.5,1.4c-0.9,2-1.9,3.5-2.9,4.4c-1,0.9-2,1.4-3.1,1.4
			c-0.3,0-0.8-0.1-1.3-0.2c-0.6-0.1-1.2-0.5-1.8-1.1c-0.6-0.6-1-1.5-1-2.6c0-0.4,0.1-0.9,0.2-1.5c0.1-0.6,0.3-1.2,0.7-1.7
			c0.3-0.5,0.8-1.2,1.6-1.9l0.7-0.7l-0.3-0.3l-0.4-0.5c-0.8-0.9-1.4-1.8-1.8-2.8s-0.6-1.9-0.6-2.9c0-1.4,0.3-2.6,1-3.6
			c0.7-1.1,1.4-1.8,2.3-2.2c0.8-0.4,1.5-0.6,2.1-0.8s1-0.2,1.4-0.2c1.1,0,2,0.3,2.7,1c0.7,0.6,1,1.5,1,2.5v0.3
			c-0.1,0.6-0.1,1.1-0.2,1.5c-0.1,0.3-0.3,1-0.7,2.1l-0.3,0.8l-0.1,0.2l-0.7,1.4l-0.8,1.6l-0.6,1l-0.5,1.1L240.4,317.8z
			 M237.7,316.6l0.7-0.6l0.6-0.6l0.6-0.5l0.8-0.8c0.9-0.9,1.6-1.7,2.1-2.4c0.5-0.7,0.9-1.5,1.3-2.3s0.5-1.5,0.5-2.2
			c0-0.8-0.3-1.4-0.8-1.9c-0.5-0.4-1-0.6-1.5-0.6c-0.4,0-0.9,0.1-1.5,0.4s-1.2,0.8-1.9,1.5c-0.7,0.7-1.2,1.5-1.7,2.2l-0.4,0.8
			c-0.6,1.3-1,2.3-1,3c0,1,0.1,1.7,0.3,2.1c0.2,0.5,0.6,0.9,1.2,1.5L237.7,316.6z M239.9,318.7l-0.2,0.5v0.1l-0.6,1.2l-0.1,0.2
			l-0.1,0.4l-0.4,1l-0.5,1.3l-0.3,1.5c0,0.2,0,0.5,0.1,0.9c0.1,0.4,0.4,0.6,0.9,0.6c0.3,0,0.6-0.1,0.9-0.3c0.3-0.1,0.7-0.4,1.1-0.7
			s0.9-0.8,1.3-1.3s0.7-1.1,1.1-1.8c0.3-0.6,0.6-1.2,0.8-1.7c0.2-0.5,0.4-1,0.6-1.5h-0.4c-0.8,0-1.3,0-1.7-0.1l-2-0.3l-0.3,0
			L239.9,318.7z"/>
		<path class="st0" d="M270.9,320.1c0,1.7-0.6,3.2-1.8,4.4c-1.2,1.2-2.7,1.8-4.4,1.8h-5.3v-12.5h5.3c1.7,0,3.2,0.6,4.4,1.8
			C270.3,316.9,270.9,318.3,270.9,320.1z M268,320.1c0-0.9-0.3-1.7-1-2.4c-0.7-0.7-1.5-1-2.4-1h-2.5v6.8h2.5c0.9,0,1.7-0.3,2.4-1
			C267.7,321.8,268,321,268,320.1z"/>
		<path class="st0" d="M271.6,326.3v-12.5h10.7v2.8h-7.8v2h6.1v2.8h-6.1v2h7.8v2.8H271.6z"/>
		<path class="st0" d="M290.8,326.3h-2.3l-5.5-12.5h3.2l3.5,7.8l3.5-7.8h3.2L290.8,326.3z"/>
		<path class="st0" d="M297,326.3v-12.5h10.7v2.8h-7.8v2h6.1v2.8h-6.1v2h7.8v2.8H297z"/>
		<path class="st0" d="M308.4,326.3v-12.5h2.8v9.6h7.8v2.8H308.4z"/>
		<path class="st0" d="M332.3,320.1c0,1.7-0.6,3.2-1.8,4.4c-1.2,1.2-2.7,1.8-4.4,1.8s-3.2-0.6-4.4-1.8c-1.2-1.2-1.8-2.7-1.8-4.4
			s0.6-3.2,1.8-4.4c1.2-1.2,2.7-1.8,4.4-1.8s3.2,0.6,4.4,1.8C331.7,316.9,332.3,318.3,332.3,320.1z M329.4,320.1
			c0-0.9-0.3-1.7-1-2.4s-1.5-1-2.4-1c-0.9,0-1.7,0.3-2.4,1s-1,1.5-1,2.4c0,0.9,0.3,1.7,1,2.4c0.7,0.7,1.4,1,2.4,1s1.7-0.3,2.4-1
			C329.1,321.8,329.4,321,329.4,320.1z"/>
		<path class="st0" d="M344.6,317.7c0,1.1-0.4,2-1.1,2.7c-0.7,0.7-1.6,1.1-2.7,1.1h-4.5l1.2-2.8h3.3c0.3,0,0.5-0.1,0.7-0.3
			c0.2-0.2,0.3-0.4,0.3-0.7c0-0.3-0.1-0.5-0.3-0.7c-0.2-0.2-0.4-0.3-0.7-0.3h-4.9v9.6H333v-12.5h7.7c1.1,0,2,0.4,2.7,1.1
			C344.2,315.7,344.6,316.6,344.6,317.7z"/>
		<path class="st0" d="M355.8,326.3v-5.6l-2.9,5.6h-1.8l-2.9-5.6v5.6h-2.8v-12.5h2.8l3.8,7.7l3.8-7.7h2.8v12.5H355.8z"/>
		<path class="st0" d="M359.3,326.3v-12.5H370v2.8h-7.8v2h6.1v2.8h-6.1v2h7.8v2.8H359.3z"/>
		<path class="st0" d="M379.4,326.3l-5.9-7.1v7.1h-2.8v-12.5h2.8l5.9,7.1v-7.1h2.8v12.5H379.4z"/>
		<path class="st0" d="M390.2,316.7v9.6h-2.8v-9.6H383v-2.8h11.6v2.8H390.2z"/>
	</g>
</g>
</svg>
